# xmcd
#
# Track frame offsets: 
#        150
#        18727
#        38685
#        59090
#        82265
#        97500
#        113025
#        133272
#        151832
#
# Disc length: 2221 seconds
#
# Revision: 7
# Processed by: cddbd v1.5.2PL0 Copyright (c) Steve Scherf et al.
# Submitted via: ExactAudioCopy v1.0b3
#
DISCID=7008ab09
DTITLE=Deep Purple - Stormbringer
DYEAR=1974
DGENRE=Hard Rock
TTITLE0=Stormbringer
TTITLE1=Love Don't Mean A Thing
TTITLE2=Holy Man
TTITLE3=Hold On
TTITLE4=Lady Double Dealer
TTITLE5=You Can't Do It Right (With The One You Love)
TTITLE6=High Ball Shooter
TTITLE7=The Gypsy
TTITLE8=Soldier Of Fortune
EXTD=
EXTT0=
EXTT1=
EXTT2=
EXTT3=
EXTT4=
EXTT5=
EXTT6=
EXTT7=
EXTT8=
PLAYORDER=
